<svg version="1.1" id="Layer_1" xmlns="http://www.w3.org/2000/svg" xmlns:xlink="http://www.w3.org/1999/xlink" x="0px" y="0px"
	 width="100%" viewBox="0 0 512 512" enable-background="new 0 0 512 512" xml:space="preserve">
<path fill="#000000" opacity="1.000000" stroke="none" 
	d="
M232.000000,1.000002 
	C248.354233,1.000000 264.708466,1.000000 281.286987,1.385884 
	C282.415100,2.092280 283.294952,2.555679 284.226318,2.711546 
	C295.496033,4.597608 306.929108,5.784907 318.016083,8.427641 
	C340.671509,13.827877 362.523346,21.761230 382.461334,33.945164 
	C395.587738,41.966610 408.623535,50.405266 420.501190,60.122379 
	C431.457001,69.085350 441.069275,79.762505 450.812622,90.118111 
	C464.034271,104.170609 474.348877,120.351471 483.328522,137.357315 
	C498.696259,166.460922 508.477478,197.281952 511.337982,230.184937 
	C511.394348,230.833221 512.424316,231.396866 513.000000,232.000000 
	C513.000000,248.354233 513.000000,264.708466 512.614136,281.286957 
	C511.907745,282.415039 511.444336,283.294922 511.288452,284.226288 
	C509.402405,295.496033 508.215027,306.929108 505.572327,318.016113 
	C500.172180,340.671509 492.238617,362.523193 480.054810,382.461182 
	C472.033447,395.587585 463.594818,408.623444 453.877716,420.501099 
	C444.914734,431.456909 434.237610,441.069214 423.881989,450.812561 
	C409.829437,464.034149 393.648560,474.348785 376.642761,483.328491 
	C347.539124,498.696289 316.718048,508.477478 283.815063,511.338074 
	C283.166779,511.394440 282.603149,512.424316 282.000000,513.000000 
	C265.645782,513.000000 249.291550,513.000000 232.713013,512.614136 
	C231.584930,511.907745 230.705063,511.444305 229.773712,511.288452 
	C218.503967,509.402405 207.070877,508.215118 195.983887,505.572357 
	C173.328384,500.172089 151.476501,492.238678 131.538437,480.054810 
	C118.411987,472.033356 105.376190,463.594543 93.498512,453.877380 
	C82.542694,444.914337 72.931099,434.236542 63.186836,423.881744 
	C49.965683,409.832153 39.653214,393.653290 30.675915,376.649261 
	C15.309006,347.542633 5.519133,316.721313 2.662967,283.814026 
	C2.606734,283.166138 1.576050,282.602783 0.999999,282.000000 
	C1.000000,265.645782 1.000000,249.291550 1.385852,232.713196 
	C2.092590,231.585342 2.556715,230.705612 2.712550,229.774277 
	C4.598292,218.504440 5.785997,207.071548 8.427312,195.984100 
	C13.825370,173.324631 21.768156,151.473099 33.948410,131.530914 
	C41.965431,118.405006 50.406826,105.373650 60.123016,93.498474 
	C69.086334,82.543457 79.764336,72.932999 90.118141,63.188309 
	C104.167046,49.965908 120.346245,39.653904 137.350189,30.676306 
	C166.456863,15.308829 197.278519,5.519250 230.185974,2.662972 
	C230.833893,2.606734 231.397217,1.576057 232.000000,1.000002 
M139.537399,46.187840 
	C138.947220,46.459538 138.329086,46.683434 137.770889,47.009819 
	C113.816017,61.016315 92.527451,78.173607 74.370262,99.296822 
	C61.904583,113.798790 50.937382,129.308594 42.414978,146.318726 
	C36.300686,158.522461 31.393753,171.400162 26.800188,184.281036 
	C19.335394,205.213120 16.018993,227.105560 15.508934,249.192383 
	C15.178303,263.509521 16.716682,277.933655 18.273258,292.216583 
	C21.072346,317.900696 29.569408,341.994202 40.961044,365.003601 
	C48.741222,380.718445 57.767570,395.875397 69.774628,408.765289 
	C82.113159,422.011047 94.467667,435.461945 108.317139,447.023926 
	C125.216858,461.132355 144.543686,471.756042 165.026657,480.280792 
	C192.627792,491.768066 221.349472,497.511597 251.057831,498.680878 
	C271.236053,499.475067 291.188599,496.930206 310.837830,492.608826 
	C329.992035,488.396301 348.643494,482.065674 365.731049,472.523499 
	C380.684448,464.173096 395.422913,454.914490 408.598602,444.047272 
	C422.508057,432.574860 435.440063,419.546326 447.008240,405.701294 
	C461.125183,388.805939 471.730774,369.470001 480.267242,348.992645 
	C491.579651,321.856323 497.298859,293.602234 498.662750,264.413849 
	C499.628754,243.740906 497.042633,223.278656 492.607971,203.135391 
	C488.391357,183.982483 482.054413,165.331802 472.516998,148.243530 
	C464.170105,133.288406 454.898376,118.557144 444.028687,105.382431 
	C432.554077,91.474487 419.530823,78.536263 405.681305,66.974503 
	C388.781464,52.866306 369.449707,42.253277 348.973114,33.714535 
	C321.851105,22.404682 293.617493,16.525879 264.435120,15.446572 
	C252.578293,15.008051 240.537506,15.807590 228.777557,17.452766 
	C214.807343,19.407152 200.877304,22.231831 187.243622,25.858805 
	C170.698547,30.260298 155.100067,37.349102 139.537399,46.187840 
z"/>
<path fill="#aeacbe" opacity="1.000000" stroke="none" 
	d="
M139.832275,45.948654 
	C155.100067,37.349102 170.698547,30.260298 187.243622,25.858805 
	C200.877304,22.231831 214.807343,19.407152 228.777557,17.452766 
	C240.537506,15.807590 252.578293,15.008051 264.435120,15.446572 
	C293.617493,16.525879 321.851105,22.404682 348.973114,33.714535 
	C369.449707,42.253277 388.781464,52.866306 405.681305,66.974503 
	C419.530823,78.536263 432.554077,91.474487 444.028687,105.382431 
	C454.898376,118.557144 464.170105,133.288406 472.516998,148.243530 
	C482.054413,165.331802 488.391357,183.982483 492.607971,203.135391 
	C497.042633,223.278656 499.628754,243.740906 498.662750,264.413849 
	C497.298859,293.602234 491.579651,321.856323 480.267242,348.992645 
	C471.730774,369.470001 461.125183,388.805939 447.008240,405.701294 
	C435.440063,419.546326 422.508057,432.574860 408.598602,444.047272 
	C395.422913,454.914490 380.684448,464.173096 365.731049,472.523499 
	C348.643494,482.065674 329.992035,488.396301 310.837830,492.608826 
	C291.188599,496.930206 271.236053,499.475067 251.057831,498.680878 
	C221.349472,497.511597 192.627792,491.768066 165.026657,480.280792 
	C144.543686,471.756042 125.216858,461.132355 108.317139,447.023926 
	C94.467667,435.461945 82.113159,422.011047 69.774628,408.765289 
	C57.767570,395.875397 48.741222,380.718445 40.961044,365.003601 
	C29.569408,341.994202 21.072346,317.900696 18.273258,292.216583 
	C16.716682,277.933655 15.178303,263.509521 15.508934,249.192383 
	C16.018993,227.105560 19.335394,205.213120 26.800188,184.281036 
	C31.393753,171.400162 36.300686,158.522461 42.414978,146.318726 
	C50.937382,129.308594 61.904583,113.798790 74.370262,99.296822 
	C92.527451,78.173607 113.816017,61.016315 137.770889,47.009819 
	C138.329086,46.683434 138.947220,46.459538 139.832275,45.948654 
M374.706116,343.168549 
	C367.560974,356.644043 357.278107,367.074951 342.829041,372.044342 
	C333.959747,375.094696 324.352234,377.290741 315.026337,377.485779 
	C283.543121,378.144104 252.037613,377.736542 220.540634,377.736542 
	C218.752548,377.736542 216.964447,377.736542 215.051102,377.736542 
	C215.051102,382.039459 215.051102,385.900360 215.051102,389.997223 
	C226.339462,389.997223 237.318604,390.068176 248.296539,389.982971 
	C274.083252,389.782837 299.888336,390.032288 325.649811,389.099792 
	C346.749512,388.335968 363.921448,378.693573 377.424469,362.459778 
	C390.405945,346.852966 396.012909,328.603363 395.862762,308.674835 
	C395.753326,294.151611 392.235016,280.240509 384.234711,267.819824 
	C376.825623,256.317047 367.247925,247.211014 354.217194,242.410370 
	C347.378967,239.891098 340.311157,237.995010 333.711151,235.931366 
	C336.616882,232.438843 339.947815,229.058334 342.558594,225.191574 
	C355.189423,206.484222 353.993378,184.672043 341.761475,167.286835 
	C331.909576,153.284302 317.351685,146.880386 300.009338,146.966888 
	C272.845947,147.102371 245.681396,146.998322 218.517349,147.017365 
	C217.275513,147.018234 216.033844,147.230972 214.941254,147.331314 
	C214.941254,195.707291 214.941254,243.650040 214.941254,291.783264 
	C218.728729,291.783264 222.313614,291.783264 226.397873,291.783264 
	C226.397873,276.194397 226.397873,260.812134 226.397873,244.703033 
	C258.822601,245.271851 290.770569,245.123474 322.642639,246.606232 
	C350.242432,247.890228 368.963165,262.732117 378.131348,288.850006 
	C384.513916,307.032471 383.113525,325.000336 374.706116,343.168549 
M148.736877,279.499847 
	C148.736877,299.609009 148.736877,319.718170 148.736877,340.042847 
	C200.395065,340.042847 251.608383,340.042847 303.027313,340.042847 
	C303.027313,336.262543 303.027313,332.701630 303.027313,328.721954 
	C255.404282,328.721954 208.017715,328.721954 160.226959,328.721954 
	C160.226959,252.592407 160.226959,176.881561 160.226959,100.969681 
	C156.258713,100.969681 152.698547,100.969681 148.736877,100.969681 
	C148.736877,160.306107 148.736877,219.402969 148.736877,279.499847 
z"/>
<path fill="#000000" opacity="1.000000" stroke="none" 
	d="
M374.774384,342.791992 
	C383.113525,325.000336 384.513916,307.032471 378.131348,288.850006 
	C368.963165,262.732117 350.242432,247.890228 322.642639,246.606232 
	C290.770569,245.123474 258.822601,245.271851 226.397873,244.703033 
	C226.397873,260.812134 226.397873,276.194397 226.397873,291.783264 
	C222.313614,291.783264 218.728729,291.783264 214.941254,291.783264 
	C214.941254,243.650040 214.941254,195.707291 214.941254,147.331314 
	C216.033844,147.230972 217.275513,147.018234 218.517349,147.017365 
	C245.681396,146.998322 272.845947,147.102371 300.009338,146.966888 
	C317.351685,146.880386 331.909576,153.284302 341.761475,167.286835 
	C353.993378,184.672043 355.189423,206.484222 342.558594,225.191574 
	C339.947815,229.058334 336.616882,232.438843 333.711151,235.931366 
	C340.311157,237.995010 347.378967,239.891098 354.217194,242.410370 
	C367.247925,247.211014 376.825623,256.317047 384.234711,267.819824 
	C392.235016,280.240509 395.753326,294.151611 395.862762,308.674835 
	C396.012909,328.603363 390.405945,346.852966 377.424469,362.459778 
	C363.921448,378.693573 346.749512,388.335968 325.649811,389.099792 
	C299.888336,390.032288 274.083252,389.782837 248.296539,389.982971 
	C237.318604,390.068176 226.339462,389.997223 215.051102,389.997223 
	C215.051102,385.900360 215.051102,382.039459 215.051102,377.736542 
	C216.964447,377.736542 218.752548,377.736542 220.540634,377.736542 
	C252.037613,377.736542 283.543121,378.144104 315.026337,377.485779 
	C324.352234,377.290741 333.959747,375.094696 342.829041,372.044342 
	C357.278107,367.074951 367.560974,356.644043 374.774384,342.791992 
M326.797638,171.688965 
	C317.981232,164.028915 307.799347,159.470932 296.078613,159.317688 
	C273.615082,159.024017 251.146912,159.079529 228.680603,159.015579 
	C227.923737,159.013412 227.166092,159.285629 226.519257,159.408920 
	C226.519257,184.315063 226.519257,208.876465 226.519257,233.735687 
	C248.046646,233.735687 269.324707,233.869843 290.598907,233.644485 
	C296.146240,233.585739 301.867096,233.079575 307.186859,231.613068 
	C321.650818,227.625748 332.486908,219.171783 336.226471,203.966049 
	C339.191223,191.910706 335.322632,181.378540 326.797638,171.688965 
z"/>
<path fill="#000000" opacity="1.000000" stroke="none" 
	d="
M148.736877,278.999817 
	C148.736877,219.402969 148.736877,160.306107 148.736877,100.969681 
	C152.698547,100.969681 156.258713,100.969681 160.226959,100.969681 
	C160.226959,176.881561 160.226959,252.592407 160.226959,328.721954 
	C208.017715,328.721954 255.404282,328.721954 303.027313,328.721954 
	C303.027313,332.701630 303.027313,336.262543 303.027313,340.042847 
	C251.608383,340.042847 200.395065,340.042847 148.736877,340.042847 
	C148.736877,319.718170 148.736877,299.609009 148.736877,278.999817 
z"/>
<path fill="#aeacbe" opacity="1.000000" stroke="none" 
	d="
M327.053589,171.946350 
	C335.322632,181.378540 339.191223,191.910706 336.226471,203.966049 
	C332.486908,219.171783 321.650818,227.625748 307.186859,231.613068 
	C301.867096,233.079575 296.146240,233.585739 290.598907,233.644485 
	C269.324707,233.869843 248.046646,233.735687 226.519257,233.735687 
	C226.519257,208.876465 226.519257,184.315063 226.519257,159.408920 
	C227.166092,159.285629 227.923737,159.013412 228.680603,159.015579 
	C251.146912,159.079529 273.615082,159.024017 296.078613,159.317688 
	C307.799347,159.470932 317.981232,164.028915 327.053589,171.946350 
z"/>
</svg>