<?xml version="1.0" standalone="no"?>
<!DOCTYPE svg PUBLIC "-//W3C//DTD SVG 20010904//EN"
 "http://www.w3.org/TR/2001/REC-SVG-20010904/DTD/svg10.dtd">
<svg version="1.0" xmlns="http://www.w3.org/2000/svg"
 width="256.000000pt" height="256.000000pt" viewBox="0 0 256.000000 256.000000"
 preserveAspectRatio="xMidYMid meet">

<g transform="translate(0.000000,256.000000) scale(0.100000,-0.100000)"
fill="#000000" stroke="none">
<path d="M784 2550 c-154 -23 -289 -141 -335 -292 -76 -250 79 -495 343 -543
51 -9 62 -13 37 -14 -48 -1 -135 -28 -185 -57 -59 -35 -141 -125 -169 -186
-72 -158 -42 -338 76 -463 113 -120 168 -135 486 -135 l243 0 0 850 0 850
-223 -1 c-122 -1 -245 -5 -273 -9z"/>
</g>
</svg>
